<mxfile host="Electron" modified="2023-05-21T13:22:48.476Z" agent="Mozilla/5.0 (X11; Linux x86_64) AppleWebKit/537.36 (KHTML, like Gecko) draw.io/21.2.8 Chrome/112.0.5615.165 Electron/24.2.0 Safari/537.36" etag="WMyrbj78S617s9aHDV3Y" version="21.2.8" type="device">
  <diagram name="Page-1" id="c7558073-3199-34d8-9f00-42111426c3f3">
    <mxGraphModel dx="1946" dy="753" grid="1" gridSize="10" guides="1" tooltips="1" connect="1" arrows="1" fold="1" page="1" pageScale="1" pageWidth="826" pageHeight="1169" background="none" math="0" shadow="0">
      <root>
        <mxCell id="0" />
        <mxCell id="1" parent="0" />
        <mxCell id="8m3beTwyRqIR_tZnSEBx-558" value="" style="rounded=0;whiteSpace=wrap;html=1;labelBackgroundColor=#33FFFF;fillColor=#cce5ff;strokeColor=#36393d;" parent="1" vertex="1">
          <mxGeometry x="680" y="140" width="120" height="30" as="geometry" />
        </mxCell>
        <mxCell id="8m3beTwyRqIR_tZnSEBx-559" value="" style="rounded=0;whiteSpace=wrap;html=1;labelBackgroundColor=#33FFFF;fillColor=#cce5ff;strokeColor=#36393d;" parent="1" vertex="1">
          <mxGeometry x="680" y="170" width="120" height="30" as="geometry" />
        </mxCell>
        <mxCell id="8m3beTwyRqIR_tZnSEBx-560" value="" style="rounded=0;whiteSpace=wrap;html=1;labelBackgroundColor=#33FFFF;fillColor=#cce5ff;strokeColor=#36393d;" parent="1" vertex="1">
          <mxGeometry x="680" y="200" width="120" height="30" as="geometry" />
        </mxCell>
        <mxCell id="8m3beTwyRqIR_tZnSEBx-561" value="" style="rounded=0;whiteSpace=wrap;html=1;labelBackgroundColor=#33FFFF;fillColor=#cce5ff;strokeColor=#36393d;" parent="1" vertex="1">
          <mxGeometry x="680" y="230" width="120" height="30" as="geometry" />
        </mxCell>
        <mxCell id="8m3beTwyRqIR_tZnSEBx-562" value="hole" style="rounded=0;whiteSpace=wrap;html=1;labelBackgroundColor=none;fillColor=#bac8d3;strokeColor=#23445d;" parent="1" vertex="1">
          <mxGeometry x="680" y="260" width="120" height="30" as="geometry" />
        </mxCell>
        <mxCell id="8m3beTwyRqIR_tZnSEBx-563" value="" style="rounded=0;whiteSpace=wrap;html=1;labelBackgroundColor=#33FFFF;" parent="1" vertex="1">
          <mxGeometry x="680" y="290" width="120" height="30" as="geometry" />
        </mxCell>
        <mxCell id="8m3beTwyRqIR_tZnSEBx-564" value="" style="rounded=0;whiteSpace=wrap;html=1;labelBackgroundColor=#33FFFF;" parent="1" vertex="1">
          <mxGeometry x="680" y="320" width="120" height="30" as="geometry" />
        </mxCell>
        <mxCell id="8m3beTwyRqIR_tZnSEBx-565" value="" style="rounded=0;whiteSpace=wrap;html=1;labelBackgroundColor=#33FFFF;fillColor=#ffcc99;strokeColor=#36393d;" parent="1" vertex="1">
          <mxGeometry x="680" y="350" width="120" height="30" as="geometry" />
        </mxCell>
        <mxCell id="8m3beTwyRqIR_tZnSEBx-566" value="hole" style="rounded=0;whiteSpace=wrap;html=1;labelBackgroundColor=#FFFFF;fillColor=#bac8d3;strokeColor=#23445d;" parent="1" vertex="1">
          <mxGeometry x="680" y="380" width="120" height="30" as="geometry" />
        </mxCell>
        <mxCell id="8m3beTwyRqIR_tZnSEBx-567" value="" style="rounded=0;whiteSpace=wrap;html=1;labelBackgroundColor=#33FFFF;fillColor=#ffcc99;strokeColor=#36393d;" parent="1" vertex="1">
          <mxGeometry x="680" y="410" width="120" height="30" as="geometry" />
        </mxCell>
        <mxCell id="8m3beTwyRqIR_tZnSEBx-568" value="" style="rounded=0;whiteSpace=wrap;html=1;labelBackgroundColor=#33FFFF;fillColor=#ffcc99;strokeColor=#36393d;" parent="1" vertex="1">
          <mxGeometry x="680" y="440" width="120" height="30" as="geometry" />
        </mxCell>
        <mxCell id="8m3beTwyRqIR_tZnSEBx-569" value="" style="rounded=0;whiteSpace=wrap;html=1;labelBackgroundColor=#33FFFF;" parent="1" vertex="1">
          <mxGeometry x="680" y="470" width="120" height="30" as="geometry" />
        </mxCell>
        <mxCell id="8m3beTwyRqIR_tZnSEBx-570" value="&lt;b&gt;物理内存&lt;/b&gt;" style="text;html=1;align=center;verticalAlign=middle;resizable=0;points=[];autosize=1;strokeColor=none;fillColor=none;" parent="1" vertex="1">
          <mxGeometry x="705" y="100" width="70" height="30" as="geometry" />
        </mxCell>
        <mxCell id="8m3beTwyRqIR_tZnSEBx-571" value="" style="rounded=0;whiteSpace=wrap;html=1;labelBackgroundColor=#33FFFF;" parent="1" vertex="1">
          <mxGeometry x="680" y="500" width="120" height="30" as="geometry" />
        </mxCell>
        <mxCell id="8m3beTwyRqIR_tZnSEBx-607" style="edgeStyle=orthogonalEdgeStyle;curved=1;orthogonalLoop=1;jettySize=auto;html=1;exitX=0.75;exitY=0;exitDx=0;exitDy=0;entryX=0;entryY=0.5;entryDx=0;entryDy=0;fontSize=14;" parent="1" source="8m3beTwyRqIR_tZnSEBx-572" target="8m3beTwyRqIR_tZnSEBx-601" edge="1">
          <mxGeometry relative="1" as="geometry" />
        </mxCell>
        <mxCell id="8m3beTwyRqIR_tZnSEBx-653" style="edgeStyle=orthogonalEdgeStyle;curved=1;rounded=0;orthogonalLoop=1;jettySize=auto;html=1;entryX=0;entryY=0.5;entryDx=0;entryDy=0;fontSize=14;" parent="1" source="8m3beTwyRqIR_tZnSEBx-572" target="8m3beTwyRqIR_tZnSEBx-647" edge="1">
          <mxGeometry relative="1" as="geometry">
            <Array as="points">
              <mxPoint x="100" y="298" />
              <mxPoint x="100" y="430" />
            </Array>
          </mxGeometry>
        </mxCell>
        <mxCell id="8m3beTwyRqIR_tZnSEBx-572" value="" style="rounded=1;whiteSpace=wrap;html=1;labelBackgroundColor=none;labelBorderColor=none;fontSize=14;" parent="1" vertex="1">
          <mxGeometry x="-70" y="247.5" width="110" height="100" as="geometry" />
        </mxCell>
        <mxCell id="8m3beTwyRqIR_tZnSEBx-589" value="Node1" style="text;html=1;align=center;verticalAlign=middle;resizable=0;points=[];autosize=1;strokeColor=none;fillColor=none;fontSize=14;" parent="1" vertex="1">
          <mxGeometry x="-50" y="202.5" width="60" height="30" as="geometry" />
        </mxCell>
        <mxCell id="8m3beTwyRqIR_tZnSEBx-590" value="&lt;span style=&quot;background-color: rgb(238, 238, 238);&quot;&gt;CPU1&lt;/span&gt;" style="whiteSpace=wrap;html=1;aspect=fixed;labelBackgroundColor=#FFFFFF;labelBorderColor=none;fontSize=14;fillColor=#eeeeee;strokeColor=#36393d;" parent="1" vertex="1">
          <mxGeometry x="-45" y="267.5" width="60" height="60" as="geometry" />
        </mxCell>
        <mxCell id="8m3beTwyRqIR_tZnSEBx-654" style="edgeStyle=orthogonalEdgeStyle;curved=1;rounded=0;orthogonalLoop=1;jettySize=auto;html=1;exitX=0.25;exitY=1;exitDx=0;exitDy=0;entryX=0;entryY=0.75;entryDx=0;entryDy=0;fontSize=14;" parent="1" source="8m3beTwyRqIR_tZnSEBx-601" target="8m3beTwyRqIR_tZnSEBx-644" edge="1">
          <mxGeometry relative="1" as="geometry" />
        </mxCell>
        <mxCell id="8m3beTwyRqIR_tZnSEBx-601" value="&lt;span style=&quot;&quot;&gt;struct zone&lt;/span&gt;" style="rounded=0;whiteSpace=wrap;html=1;labelBackgroundColor=none;labelBorderColor=none;fontSize=14;" parent="1" vertex="1">
          <mxGeometry x="130" y="87.5" width="100" height="30" as="geometry" />
        </mxCell>
        <mxCell id="8m3beTwyRqIR_tZnSEBx-655" style="edgeStyle=orthogonalEdgeStyle;curved=1;rounded=0;orthogonalLoop=1;jettySize=auto;html=1;exitX=0.25;exitY=1;exitDx=0;exitDy=0;entryX=0;entryY=0.25;entryDx=0;entryDy=0;fontSize=14;" parent="1" source="8m3beTwyRqIR_tZnSEBx-604" target="8m3beTwyRqIR_tZnSEBx-640" edge="1">
          <mxGeometry relative="1" as="geometry" />
        </mxCell>
        <mxCell id="8m3beTwyRqIR_tZnSEBx-604" value="&lt;span style=&quot;&quot;&gt;struct zone&lt;/span&gt;" style="rounded=0;whiteSpace=wrap;html=1;labelBackgroundColor=none;labelBorderColor=none;fontSize=14;" parent="1" vertex="1">
          <mxGeometry x="230" y="87.5" width="100" height="30" as="geometry" />
        </mxCell>
        <mxCell id="8m3beTwyRqIR_tZnSEBx-608" value="zones[NR_MAX_ZONES]" style="text;html=1;align=center;verticalAlign=middle;resizable=0;points=[];autosize=1;strokeColor=none;fillColor=none;fontSize=14;" parent="1" vertex="1">
          <mxGeometry x="60" y="50" width="180" height="30" as="geometry" />
        </mxCell>
        <mxCell id="8m3beTwyRqIR_tZnSEBx-656" style="edgeStyle=orthogonalEdgeStyle;curved=1;rounded=0;orthogonalLoop=1;jettySize=auto;html=1;exitX=0.25;exitY=1;exitDx=0;exitDy=0;entryX=0;entryY=0.5;entryDx=0;entryDy=0;fontSize=14;" parent="1" source="8m3beTwyRqIR_tZnSEBx-609" target="8m3beTwyRqIR_tZnSEBx-637" edge="1">
          <mxGeometry relative="1" as="geometry" />
        </mxCell>
        <mxCell id="8m3beTwyRqIR_tZnSEBx-609" value="&lt;span style=&quot;&quot;&gt;struct zone&lt;/span&gt;" style="rounded=0;whiteSpace=wrap;html=1;labelBackgroundColor=none;labelBorderColor=none;fontSize=14;" parent="1" vertex="1">
          <mxGeometry x="330" y="87.5" width="100" height="30" as="geometry" />
        </mxCell>
        <mxCell id="8m3beTwyRqIR_tZnSEBx-649" style="rounded=0;orthogonalLoop=1;jettySize=auto;html=1;exitX=1;exitY=0.5;exitDx=0;exitDy=0;entryX=0;entryY=0.5;entryDx=0;entryDy=0;fontSize=14;" parent="1" source="8m3beTwyRqIR_tZnSEBx-635" target="8m3beTwyRqIR_tZnSEBx-558" edge="1">
          <mxGeometry relative="1" as="geometry" />
        </mxCell>
        <mxCell id="8m3beTwyRqIR_tZnSEBx-635" value="&lt;span style=&quot;&quot;&gt;struct page&lt;/span&gt;" style="rounded=0;whiteSpace=wrap;html=1;labelBackgroundColor=none;" parent="1" vertex="1">
          <mxGeometry x="400" y="200" width="80" height="20" as="geometry" />
        </mxCell>
        <mxCell id="8m3beTwyRqIR_tZnSEBx-636" value="&lt;span style=&quot;&quot;&gt;struct page&lt;/span&gt;" style="rounded=0;whiteSpace=wrap;html=1;labelBackgroundColor=none;" parent="1" vertex="1">
          <mxGeometry x="400" y="220" width="80" height="20" as="geometry" />
        </mxCell>
        <mxCell id="8m3beTwyRqIR_tZnSEBx-637" value="&lt;span style=&quot;&quot;&gt;struct page&lt;/span&gt;" style="rounded=0;whiteSpace=wrap;html=1;labelBackgroundColor=none;" parent="1" vertex="1">
          <mxGeometry x="400" y="240" width="80" height="20" as="geometry" />
        </mxCell>
        <mxCell id="8m3beTwyRqIR_tZnSEBx-638" value="&lt;span style=&quot;&quot;&gt;struct page&lt;/span&gt;" style="rounded=0;whiteSpace=wrap;html=1;labelBackgroundColor=none;" parent="1" vertex="1">
          <mxGeometry x="400" y="260" width="80" height="20" as="geometry" />
        </mxCell>
        <mxCell id="8m3beTwyRqIR_tZnSEBx-639" value="&lt;span style=&quot;&quot;&gt;struct page&lt;/span&gt;" style="rounded=0;whiteSpace=wrap;html=1;labelBackgroundColor=none;" parent="1" vertex="1">
          <mxGeometry x="400" y="280" width="80" height="20" as="geometry" />
        </mxCell>
        <mxCell id="8m3beTwyRqIR_tZnSEBx-640" value="&lt;span style=&quot;&quot;&gt;struct page&lt;/span&gt;" style="rounded=0;whiteSpace=wrap;html=1;labelBackgroundColor=none;" parent="1" vertex="1">
          <mxGeometry x="400" y="300" width="80" height="20" as="geometry" />
        </mxCell>
        <mxCell id="8m3beTwyRqIR_tZnSEBx-641" value="&lt;span style=&quot;&quot;&gt;struct page&lt;/span&gt;" style="rounded=0;whiteSpace=wrap;html=1;labelBackgroundColor=none;" parent="1" vertex="1">
          <mxGeometry x="400" y="320" width="80" height="20" as="geometry" />
        </mxCell>
        <mxCell id="8m3beTwyRqIR_tZnSEBx-642" value="&lt;span style=&quot;&quot;&gt;struct page&lt;/span&gt;" style="rounded=0;whiteSpace=wrap;html=1;labelBackgroundColor=none;" parent="1" vertex="1">
          <mxGeometry x="400" y="340" width="80" height="20" as="geometry" />
        </mxCell>
        <mxCell id="8m3beTwyRqIR_tZnSEBx-643" value="&lt;span style=&quot;&quot;&gt;struct page&lt;/span&gt;" style="rounded=0;whiteSpace=wrap;html=1;labelBackgroundColor=none;" parent="1" vertex="1">
          <mxGeometry x="400" y="340" width="80" height="20" as="geometry" />
        </mxCell>
        <mxCell id="8m3beTwyRqIR_tZnSEBx-644" value="&lt;span style=&quot;&quot;&gt;struct page&lt;/span&gt;" style="rounded=0;whiteSpace=wrap;html=1;labelBackgroundColor=none;" parent="1" vertex="1">
          <mxGeometry x="400" y="360" width="80" height="20" as="geometry" />
        </mxCell>
        <mxCell id="8m3beTwyRqIR_tZnSEBx-645" value="&lt;span style=&quot;&quot;&gt;struct page&lt;/span&gt;" style="rounded=0;whiteSpace=wrap;html=1;labelBackgroundColor=none;" parent="1" vertex="1">
          <mxGeometry x="400" y="380" width="80" height="20" as="geometry" />
        </mxCell>
        <mxCell id="8m3beTwyRqIR_tZnSEBx-646" value="&lt;span style=&quot;&quot;&gt;struct page&lt;/span&gt;" style="rounded=0;whiteSpace=wrap;html=1;labelBackgroundColor=none;" parent="1" vertex="1">
          <mxGeometry x="400" y="400" width="80" height="20" as="geometry" />
        </mxCell>
        <mxCell id="8m3beTwyRqIR_tZnSEBx-650" style="edgeStyle=none;rounded=0;orthogonalLoop=1;jettySize=auto;html=1;entryX=0;entryY=0.5;entryDx=0;entryDy=0;fontSize=14;" parent="1" source="8m3beTwyRqIR_tZnSEBx-647" target="8m3beTwyRqIR_tZnSEBx-571" edge="1">
          <mxGeometry relative="1" as="geometry" />
        </mxCell>
        <mxCell id="8m3beTwyRqIR_tZnSEBx-647" value="&lt;span style=&quot;&quot;&gt;struct page&lt;/span&gt;" style="rounded=0;whiteSpace=wrap;html=1;labelBackgroundColor=none;" parent="1" vertex="1">
          <mxGeometry x="400" y="420" width="80" height="20" as="geometry" />
        </mxCell>
        <mxCell id="8m3beTwyRqIR_tZnSEBx-658" value="struct page mem_map[]" style="text;html=1;align=center;verticalAlign=middle;resizable=0;points=[];autosize=1;strokeColor=none;fillColor=none;fontSize=14;" parent="1" vertex="1">
          <mxGeometry x="30" y="355" width="170" height="30" as="geometry" />
        </mxCell>
        <mxCell id="8m3beTwyRqIR_tZnSEBx-659" value="struct page *mem_map" style="text;html=1;align=center;verticalAlign=middle;resizable=0;points=[];autosize=1;strokeColor=none;fillColor=none;fontSize=14;" parent="1" vertex="1">
          <mxGeometry x="55" y="135" width="170" height="30" as="geometry" />
        </mxCell>
        <mxCell id="8m3beTwyRqIR_tZnSEBx-661" value="struct page *mem_map" style="text;html=1;align=center;verticalAlign=middle;resizable=0;points=[];autosize=1;strokeColor=none;fillColor=none;fontSize=14;" parent="1" vertex="1">
          <mxGeometry x="170" y="170" width="170" height="30" as="geometry" />
        </mxCell>
        <mxCell id="8m3beTwyRqIR_tZnSEBx-662" value="struct page *mem_map" style="text;html=1;align=center;verticalAlign=middle;resizable=0;points=[];autosize=1;strokeColor=none;fillColor=none;fontSize=14;" parent="1" vertex="1">
          <mxGeometry x="280" y="135" width="170" height="30" as="geometry" />
        </mxCell>
      </root>
    </mxGraphModel>
  </diagram>
</mxfile>
